# xmcd CD database file
#
# Track frame offsets:
#	150
#	26114
#	45596
#	60692
#	86288
#	109474
#	124005
#	143464
#	171145
#	183992
#
# Disc length: 2675 seconds
#
# Revision: 3
# Processed by: cddbd v1.5.2PL0 Copyright (c) Steve Scherf et al.
# Submitted via: CDex 1.70beta2
#
DISCID=800a710a
DTITLE=Erasure - Acoustic Live (TEA Shepherds Bush Empire, London, England 19.04.06) (1 of 2)
DYEAR=2006
DGENRE=Synthpop
TTITLE0=Home
TTITLE1=Boy
TTITLE2=Victim Of Love
TTITLE3=Stay With Me
TTITLE4=Love Affair
TTITLE5=Oh L'Amour
TTITLE6=Alien
TTITLE7=Blue Savannah
TTITLE8=Spiralling
TTITLE9=How Many Times?
EXTD=Recorded live at Shepherds Bush Empire 19th April 2006 YEAR: 2006
EXTT0=
EXTT1=
EXTT2=
EXTT3=
EXTT4=
EXTT5=
EXTT6=
EXTT7=
EXTT8=
EXTT9=
PLAYORDER=
